<svg xmlns="http://www.w3.org/2000/svg" width="128" height="128" viewBox="0 0 24 24"><g fill="none" stroke="currentColor" stroke-linecap="round" stroke-linejoin="round" stroke-width="1.5" color="currentColor"><path d="m8 16l8.72-.727c2.729-.227 3.341-.823 3.643-3.544L21 6M6 6h1m15 0h-2m-9.485-3.613c1.073-.64 2.009-.382 2.571.028c.23.169.346.253.414.253s.183-.084.414-.253c.562-.41 1.498-.668 2.571-.028c1.408.84 1.726 3.609-1.52 5.945c-.62.445-.928.668-1.465.668s-.846-.223-1.464-.668c-3.247-2.336-2.929-5.106-1.521-5.945"/><circle cx="6" cy="20" r="2"/><circle cx="17" cy="20" r="2"/><path d="M8 20h7M2 2h.966c.945 0 1.768.625 1.997 1.515L7.94 15.076a1.96 1.96 0 0 1-.35 1.686L6.631 18"/></g></svg>