<svg xmlns="http://www.w3.org/2000/svg" width="128" height="128" viewBox="0 0 24 24"><path fill="none" stroke="currentColor" stroke-linecap="round" stroke-linejoin="round" stroke-width="1.5" d="M7 6.5h9.75c2.107 0 3.16 0 3.917.506a3 3 0 0 1 .827.827c.464.694.503 1.427.506 3.167M12 6.5l-.633-1.267c-.525-1.05-1.005-2.106-2.168-2.542C8.69 2.5 8.108 2.5 6.944 2.5c-1.816 0-2.724 0-3.406.38A3 3 0 0 0 2.38 4.038C2 4.72 2 5.628 2 7.444V10.5c0 4.714 0 7.071 1.464 8.535C4.822 20.394 6.944 20.493 11 20.5m7.375-1.25c0 1.243-.98 2.25-2.187 2.25c-1.209 0-2.188-1.007-2.188-2.25S14.98 17 16.188 17s2.187 1.007 2.187 2.25m0 0V12.5c.292.45.525 2.34 2.625 2.7" color="currentColor"/></svg>