<svg xmlns="http://www.w3.org/2000/svg" width="128" height="128" viewBox="0 0 24 24"><path fill="none" stroke="currentColor" stroke-linecap="round" stroke-linejoin="round" stroke-width="1.5" d="M12.5 22H6.59c-1.545 0-2.774-.752-3.877-1.803c-2.26-2.153 1.45-3.873 2.865-4.715A10.66 10.66 0 0 1 13 14.188M15.5 6.5a4.5 4.5 0 1 1-9 0a4.5 4.5 0 0 1 9 0m3.191 8.078l.704 1.42a.87.87 0 0 0 .568.423l1.276.213c.816.137 1.008.734.42 1.323l-.992 1a.88.88 0 0 0-.208.73l.284 1.238c.224.98-.292 1.359-1.152.847l-1.196-.714a.86.86 0 0 0-.792 0l-1.196.714c-.856.512-1.376.129-1.152-.847l.284-1.238a.88.88 0 0 0-.208-.73l-.992-1c-.583-.589-.395-1.186.42-1.323l1.276-.213a.87.87 0 0 0 .564-.424l.704-1.42c.384-.77 1.008-.77 1.388 0" color="currentColor"/></svg>