<svg xmlns="http://www.w3.org/2000/svg" width="128" height="128" viewBox="0 0 24 24"><path fill="none" stroke="currentColor" stroke-linecap="round" stroke-linejoin="round" stroke-width="1.5" d="M19.709 7.65c.157-.157.428-.173.587 0c.932 1.018 1.449 1.772 1.619 2.606c.097.48.111.968.04 1.443c-.19 1.285-1.23 2.325-3.312 4.406l-2.538 2.538c-2.08 2.081-3.121 3.122-4.406 3.313c-.475.07-.963.056-1.443-.041c-.834-.17-1.588-.686-2.605-1.619c-.174-.16-.158-.43 0-.588c.876-.876.834-2.338-.093-3.266c-.928-.927-2.39-.969-3.266-.093c-.157.158-.429.174-.588 0c-.933-1.017-1.449-1.77-1.619-2.605a4.2 4.2 0 0 1-.04-1.443c.19-1.285 1.23-2.325 3.312-4.406l2.538-2.538c2.08-2.081 3.121-3.122 4.406-3.313c.475-.07.963-.056 1.443.041c.835.17 1.588.687 2.605 1.62c.174.159.158.43 0 .586c-.876.877-.834 2.339.094 3.266c.927.928 2.39.97 3.265.093M19 15L9 5" color="currentColor"/></svg>